# xmcd
#
# Track frame offsets:
# 150
# 13772
# 35113
# 48398
# 63756
# 83692
# 97647
# 112262
# 127463
# 141424
# 156439
# 173017
# 186807
# 202035
# 217800
#
# Disc length: 3108 seconds
#
#
# Revision: 0
# Processed by: cddbd v1.5.2PL0 Copyright (c) Steve Scherf et al.
# Submitted via: FreeRIP 2.96 
#
DISCID=d80c220f
DTITLE=Edith Piaf - The Essential Collection
DYEAR=1900
DGENRE=Chanson
TTITLE0=La Vie En Rose
TTITLE1=Un Monsieur Me Suit Dans La Rue
TTITLE2=Jimmy C'est Lui
TTITLE3=Le Vagabond
TTITLE4=C'était Une Historie D'Amour
TTITLE5=Reste
TTITLE6=L'Accordéoniste
TTITLE7=Les Momes De La Cloche
TTITLE8=J'suis Mordue
TTITLE9=J'ai Dansé Avec L'amour
TTITLE10=Elle Fréquentaint La Rue Pigalle
TTITLE11=La Fanion De La Légion
TTITLE12=C'est Lui Que Coeur A Choisi
TTITLE13=L'Étranger
TTITLE14=Unknown
EXTD=
EXTT0=
EXTT1=
EXTT2=
EXTT3=
EXTT4=
EXTT5=
EXTT6=
EXTT7=
EXTT8=
EXTT9=
EXTT10=
EXTT11=
EXTT12=
EXTT13=
EXTT14=
PLAYORDER=
